<?xml version="1.0" encoding="utf-8"?>
<!-- Generator: Adobe Illustrator 21.0.0, SVG Export Plug-In . SVG Version: 6.00 Build 0)  -->
<svg version="1.1"
	 id="svg6073" inkscape:version="0.44" sodipodi:docbase="e:\dev_clean\src\houdini\support\icons\sop" sodipodi:docname="lsystem.svg" sodipodi:version="0.32" xmlns:cc="http://web.resource.org/cc/" xmlns:dc="http://purl.org/dc/elements/1.1/" xmlns:inkscape="http://www.inkscape.org/namespaces/inkscape" xmlns:rdf="http://www.w3.org/1999/02/22-rdf-syntax-ns#" xmlns:sodipodi="http://sodipodi.sourceforge.net/DTD/sodipodi-0.dtd" xmlns:svg="http://www.w3.org/2000/svg"
	 xmlns="http://www.w3.org/2000/svg" xmlns:xlink="http://www.w3.org/1999/xlink" x="0px" y="0px" viewBox="0 0 400 400"
	 style="enable-background:new 0 0 400 400;" xml:space="preserve">
<style type="text/css">
	.st0{fill:url(#path7261_1_);}
	.st1{fill:#2E6819;}
	.st2{fill:none;stroke:#34A334;stroke-width:16.6161;stroke-linecap:round;}
	.st3{fill:none;stroke:#74CE84;stroke-width:8.308;stroke-linecap:round;}
</style>
<sodipodi:namedview  bordercolor="#666666" borderopacity="1.0" id="base" inkscape:current-layer="layer1" inkscape:cx="26.970741" inkscape:cy="22.335148" inkscape:document-units="px" inkscape:grid-bbox="false" inkscape:pageopacity="0.0" inkscape:pageshadow="2" inkscape:window-height="1088" inkscape:window-width="1297" inkscape:window-x="296" inkscape:window-y="0" inkscape:zoom="10.5" pagecolor="#ffffff" showgrid="true">
	</sodipodi:namedview>
<g id="layer1" inkscape:groupmode="layer" inkscape:label="Layer 1">
	
		<linearGradient id="path7261_1_" gradientUnits="userSpaceOnUse" x1="189.8236" y1="336.9935" x2="299.806" y2="425.6124" gradientTransform="matrix(1 0 0 -1 0 754)">
		<stop  offset="0" style="stop-color:#2E3436"/>
		<stop  offset="1" style="stop-color:#2E3436;stop-opacity:0"/>
	</linearGradient>
	<path id="path7261" sodipodi:nodetypes="cccccccccc" class="st0" d="M169.6,377.7l57.8-22.2l34-65.7l11.9,5.5L249.6,354l99.7-10.3
		l4,11.1l-107.6,20.6l-65.7,23.7L169.6,377.7z"/>
	
		<path id="path6966" sodipodi:nodetypes="cscccsscccccccsscccsscccccsscccssccsccccsccccccccsscccsscccccsscccsscccccccccsscccsscccccsscccsscccccccsscccssccccccc" class="st1" d="
		M111.7,0c-4.2,0.4-7.9,2.8-9.9,6.5c-2,3.7-2,8.2,0,11.9l23.6,45.7L65.7,50.7c-1.2-0.3-2.4-0.4-3.6-0.3c-6.3,0.3-11.2,5.2-11.7,11.4
		c-0.5,6.3,3.7,12,9.9,13.2l81.8,18.4l51.1,66.2l-1,75.6l-49.1-43.9l-36.6-36.9l-6-51.4c-0.7-6.5-6.2-11.3-12.7-11.2
		c-3.5,0.1-6.8,1.7-9.1,4.4c-2.3,2.7-3.3,6.1-2.9,9.6l3.9,33.5l-46-21.3c-1.9-0.9-3.9-1.4-6-1.3c-5.8,0.3-10.6,4.4-11.7,10.1
		c-1.1,5.7,1.9,11.5,7.3,13.8l60.8,28l27.5,26.5l-49.8,23.1l-42.6-25.4c-2.2-1.3-4.7-2-7.3-1.8c-5.6,0.3-10.4,4.2-11.7,9.6
		c-1.3,5.4,1.3,11.1,6.2,13.8l35,20.8l-27.5,25.4c-3.8,2.9-5.6,7.5-4.7,12.2c0.9,4.7,4.2,8.6,8.8,9.9s9.6-0.3,12.7-3.9l36.6-33.8
		c0.4-0.2,0.9-0.3,1.3-0.5c1.7-0.9,3-2.2,4.2-3.6l57.9-27l60.2,54L166.7,384c-1.4,6.7,2.9,13.4,9.6,14.8s13.4-2.9,14.8-9.6
		l23.4-110.1l63.1,3.4l62.8,42.6c0.1,0.1,0.2,0.2,0.3,0.3h0.3c0.1,0.1,0.2,0.2,0.3,0.3l35.3,46.2c2.5,4,7,6.2,11.7,5.7
		c4.7-0.5,9-3.4,10.6-7.8c1.7-4.4,0.6-9.5-2.6-13l-27.5-35.8l23.9-10.6c6-2.3,9.3-8.9,7.5-15.1c-1.8-6.2-7.9-10-14.3-8.8
		c-1.2,0.2-2.3,0.5-3.4,1l-31.9,14.3l-46.5-31.4l41-32.2l39.5,8c4.5,1.1,9.1-0.2,12.2-3.6c3.1-3.4,4.1-8.4,2.6-12.7
		c-1.5-4.3-5.3-7.4-9.9-8l-28-5.7l21-43.1c2.1-4,2-8.7-0.5-12.5c-2.5-3.8-6.9-6-11.4-5.7c-4.5,0.3-8.4,3-10.4,7l-25.4,51.9
		c-2.4,1.3-4.3,3.2-5.5,5.7l-48.8,38.2l-45.7-2.6l57.4-63.3l0.5-0.5l65.4-45.2l33.8-13.2c6.7-1.7,10.5-8.4,8.8-15.1
		c-1.7-6.7-8.4-10.8-15.1-9.1c-1.1,0.2-2.1,0.6-3.1,1l-16.4,6.5l1.8-36.3c0.2-3.6-1.1-7.1-3.6-9.6c-2.5-2.5-6-3.9-9.6-3.6
		c-6.4,0.4-11.4,5.6-11.7,11.9l-2.6,49.6l-42.8,29.6l3.1-31.4l30.9-69.6c1.9-4,1.5-8.8-1-12.5c-2.6-3.6-7-5.6-11.4-5.2
		c-4.6,0.4-8.6,3.3-10.4,7.5l-22.1,49.6l-13.2-20c-2.6-4-7.2-6.3-11.9-5.7c-4.4,0.5-8.1,3.3-9.9,7.3c-1.8,4-1.5,8.6,1,12.2
		l23.1,34.8l-5.2,53.2l-53.5,59.5l1-78.9l22.3-77.9l46.2-59.5c3.1-3.9,3.6-9.1,1.3-13.5c-2.3-4.4-7-7.1-11.9-6.8
		c-3.6,0.3-6.9,2.1-9.1,4.9l-33,42.3L223.9,9.6c-1.5-6.4-7.8-10.5-14.3-9.3c-3.5,0.6-6.4,2.7-8.3,5.7c-1.9,3-2.5,6.5-1.6,9.9
		l15.8,60.8l-14.8,51.9l-41.5-53.7l-0.8-1L123.9,7C121.7,2.4,116.8-0.4,111.7,0z"/>
	<g id="g7191" transform="translate(-0.285714,-0.285714)">
		<path id="path7159" sodipodi:nodetypes="ccccc" class="st2" d="M177.2,384.5l25.5-120.4l1.3-110.8l-56.4-72.9L61.1,60.9"/>
		<path id="path7161" sodipodi:nodetypes="cccc" class="st2" d="M206.2,264.1l75.3-83.5l68.7-47.6l35.1-14"/>
		<path id="path7163" sodipodi:nodetypes="ccc" class="st2" d="M204,154.4L226.8,75l-16.9-64.2"/>
		<path id="path7165" sodipodi:nodetypes="ccc" class="st2" d="M281,180.7l5.8-61.5L261.2,81"/>
		<path id="path7167" sodipodi:nodetypes="cc" class="st2" d="M147.5,81.5l-36.4-70.8"/>
		<path id="path7169" sodipodi:nodetypes="cc" class="st2" d="M226.8,73.4l48.1-62"/>
		<path id="path7171" sodipodi:nodetypes="cc" class="st2" d="M286.8,120.8l31.6-71.2"/>
		<path id="path7173" sodipodi:nodetypes="cc" class="st2" d="M350.7,132l2.9-54.9"/>
		<path id="path7175" sodipodi:nodetypes="cccc" class="st2" d="M206.2,264.1l76.2,4.2l59.6-46.9l27.4-56"/>
		<path id="path7177" sodipodi:nodetypes="cc" class="st2" d="M339.1,222.6l46.2,9.4"/>
		<path id="path7179" sodipodi:nodetypes="ccc" class="st2" d="M281,268.9l66.5,45.1l37.2,48.3"/>
		<path id="path7181" sodipodi:nodetypes="cc" class="st2" d="M347.4,314l38.4-17.1"/>
		<path id="path7183" sodipodi:nodetypes="cccc" class="st2" d="M206.2,264.1l-74.9-67l-69.1,32l-41.5,38.6"/>
		<path id="path7185" sodipodi:nodetypes="ccc" class="st2" d="M132.3,198.2l-39.8-40.4l-65.8-30.5"/>
		<path id="path7187" sodipodi:nodetypes="cc" class="st2" d="M92.9,159.3l-6.6-56.7"/>
		<path id="path7189" sodipodi:nodetypes="cc" class="st2" d="M60.2,230.9L11,201.8"/>
	</g>
	<path id="path7211" sodipodi:nodetypes="ccccc" class="st3" d="M172.9,384.2l26.2-133.9l1.3-110l-50.9-65L60.8,57.5"/>
	<path id="path7213" sodipodi:nodetypes="cccc" class="st3" d="M208.3,257.5l68.2-74.8l77.4-53.1l35.1-14"/>
	<path id="path7215" sodipodi:nodetypes="ccc" class="st3" d="M199.9,152.5l25-79.3l-17.7-62.6"/>
	<path id="path7217" sodipodi:nodetypes="ccc" class="st3" d="M277.5,181.2l6.6-72.5l-19.3-31.1"/>
	<path id="path7219" sodipodi:nodetypes="cc" class="st3" d="M151.2,78L114.8,7.2"/>
	<path id="path7221" sodipodi:nodetypes="cc" class="st3" d="M224.9,72.2L273.8,8"/>
	<path id="path7223" sodipodi:nodetypes="cc" class="st3" d="M284.1,113.6l32.5-67.5"/>
	<path id="path7225" sodipodi:nodetypes="cc" class="st3" d="M348.1,132.9l2.9-57.6"/>
	<path id="path7227" sodipodi:nodetypes="cccc" class="st3" d="M199.6,259.9l81.8,5.8l59.6-46.9l28.2-56.8"/>
	<path id="path7229" sodipodi:nodetypes="cc" class="st3" d="M342.8,219.1l46.2,9.4"/>
	<path id="path7231" sodipodi:nodetypes="ccc" class="st3" d="M284.6,265.4l62.5,43.5l41.1,49.8"/>
	<path id="path7233" sodipodi:nodetypes="cc" class="st3" d="M347.1,309.7l39.2-16.4"/>
	<path id="path7235" sodipodi:nodetypes="cccc" class="st3" d="M198.8,252.8L135,193.7l-69.1,32l-41.5,38.6"/>
	<path id="path7237" sodipodi:nodetypes="ccc" class="st3" d="M136,194.7l-39.8-40.4l-65.8-30.5"/>
	<path id="path7239" sodipodi:nodetypes="cc" class="st3" d="M96.6,155.8L90,99.1"/>
	<path id="path7241" sodipodi:nodetypes="cc" class="st3" d="M63.9,227.5l-49.2-29.1"/>
</g>
</svg>
