<?xml version="1.0" encoding="utf-8"?>
<!-- Generator: Adobe Illustrator 15.0.0, SVG Export Plug-In . SVG Version: 6.00 Build 0)  -->
<!DOCTYPE svg PUBLIC "-//W3C//DTD SVG 1.1//EN" "http://www.w3.org/Graphics/SVG/1.1/DTD/svg11.dtd">
<svg version="1.1"
	 id="svg11300" xmlns:dc="http://purl.org/dc/elements/1.1/" xmlns:cc="http://web.resource.org/cc/" xmlns:rdf="http://www.w3.org/1999/02/22-rdf-syntax-ns#" xmlns:svg="http://www.w3.org/2000/svg" xmlns:sodipodi="http://sodipodi.sourceforge.net/DTD/sodipodi-0.dtd" xmlns:inkscape="http://www.inkscape.org/namespaces/inkscape" sodipodi:version="0.32" inkscape:version="0.44" sodipodi:docname="rop.svg" sodipodi:docbase="e:\dev_clean\src\houdini\support\icons\networks" inkscape:export-filename="/home/jimmac/Desktop/wi-fi.png" inkscape:export-ydpi="90.000000" inkscape:export-xdpi="90.000000"
	 xmlns="http://www.w3.org/2000/svg" xmlns:xlink="http://www.w3.org/1999/xlink" x="0px" y="0px" width="400px" height="400px"
	 viewBox="-176 -352 400 400" enable-background="new -176 -352 400 400" xml:space="preserve">
<sodipodi:namedview  fill="#eeeeec" stroke="#ef2929" id="base" inkscape:zoom="7.59375" borderopacity="0.25490196" bordercolor="#666666" pagecolor="#ffffff" inkscape:cy="21.655263" inkscape:cx="26.057123" inkscape:window-y="149" inkscape:window-x="385" inkscape:window-height="630" inkscape:window-width="872" inkscape:current-layer="layer1" inkscape:document-units="px" inkscape:pageshadow="2" inkscape:pageopacity="0.0" showgrid="false" inkscape:showpageshadow="false" inkscape:grid-bbox="true">
	</sodipodi:namedview>
<g id="Queue">
	<path id="Black" d="M26.248-351.5h-150c-33,0-50,17-50,47v153c0,110.457,89.543,200,200,200c110.457,0,200-89.543,200-200
		S136.705-351.5,26.248-351.5z"/>
	<circle id="Grey" fill="#616161" cx="27.498" cy="-152.75" r="185.25"/>
	<circle id="DarkGrey" fill="#3A3A3A" cx="27.498" cy="-152.75" r="158.25"/>
	<path id="White" fill="#F7F7F7" d="M26.248-318.167h-134c-19.333,0-32.667,13.334-32.667,33V-151.5
		c0,92.094,74.823,166.5,166.917,166.5c92.094,0,166.75-74.656,166.75-166.75S118.342-318.167,26.248-318.167z M126.236-80.184
		c0,13.895-49.971,47.375-99.941,47.375c-49.968,0-99.94-35.824-99.94-51.396s0-8.604,0-18.146c0-9.543,2.874-16.403,11.494-16.403
		c13.492,0,50.969,33.313,88.448,33.313c37.479,0,73.955-33.313,86.947-33.313c12.994,0,12.994,8.872,12.994,16.403L126.236-80.184
		L126.236-80.184z M26.295-118.917c-49.97,0-99.94-33.313-99.94-51.728c0-10.044,2.874-15.066,11.494-15.066
		c13.492,0,50.969,33.313,88.448,33.313c37.479,0,73.955-33.313,86.947-33.313c12.994,0,12.994,7.031,12.994,15.066
		C126.236-152.23,76.268-118.917,26.295-118.917z M26.295-186.715c-49.97,1.507-99.639-37.335-99.94-48.044
		c-0.2-7.114,0.801-16.541,11.494-16.74c13.489-0.253,49.844,31.639,88.448,31.639c38.604,0,73.955-31.639,86.947-31.639
		c12.994,0,12.994,7.365,12.994,16.74C126.236-219.19,76.268-188.222,26.295-186.715z"/>
	<path id="Shadows" fill="#C6C6C6" d="M126.248-241.167c0,0-0.066,0.047-0.188,0.129c0.176,1.932,0.178,4.047,0.178,6.279
		c0,15.568-49.971,46.537-99.941,48.044c-39.38,1.188-78.752-22.678-93.676-38.092l42.08,56.6
		c15.398,8.036,33.494,15.809,51.596,15.809c37.479,0,73.955-33.313,86.947-33.313c12.994,0,12.994,7.031,12.994,15.066
		c0,18.415-49.971,51.728-99.941,51.728c-35.456,0-70.903-16.771-88.51-33.09l32.136,48.223
		c16.359,8.853,36.365,18.347,56.375,18.347c37.479,0,73.955-33.313,86.947-33.313c12.994,0,12.994,8.872,12.994,16.404v22.162
		c0,13.895-49.971,47.375-99.941,47.375c-47.339,0-94.669-32.146-99.525-48.771l-0.524,0.247l53.396,89.687
		c0,0,30.592,6.646,46.854,6.646c84.547,0,154.398-62.924,165.277-144.496C159.58-180.542,126.248-241.167,126.248-241.167z
		 M-73.336-233.123c-0.27-0.163-0.416-0.254-0.416-0.254l0.659,0.886C-73.187-232.708-73.268-232.918-73.336-233.123z
		 M-73.553-169.308l-0.199-0.013l0.241,0.362C-73.528-169.077-73.54-169.192-73.553-169.308z"/>
</g>
<g id="layer1" inkscape:label="Layer 1" inkscape:groupmode="layer">
	
		<radialGradient id="path7077_1_" cx="121.4785" cy="-85.9238" r="132.7075" gradientTransform="matrix(1.066 0 0 -0.708 -96.219 -204.4261)" gradientUnits="userSpaceOnUse">
		<stop  offset="0" style="stop-color:#000000"/>
		<stop  offset="1" style="stop-color:#000000;stop-opacity:0"/>
	</radialGradient>
	
		<path id="path7077" sodipodi:ry="14.318913" sodipodi:rx="21.566757" sodipodi:cy="26.963573" sodipodi:cx="23.157747" inkscape:r_cx="true" inkscape:r_cy="true" sodipodi:type="arc" opacity="0.7033" fill="url(#path7077_1_)" enable-background="new    " d="
		M174.715-143.592c0.024,51.886-63.278,93.962-141.396,93.98c-78.115,0.012-141.459-42.033-141.484-93.92c0-0.023,0-0.036,0-0.06
		c-0.023-51.884,63.284-93.959,141.4-93.974c78.119-0.015,141.456,42.033,141.48,93.92
		C174.715-143.629,174.715-143.61,174.715-143.592z"/>
	
		<path id="path7028" sodipodi:ry="8.25" sodipodi:rx="14.75" sodipodi:cy="21" sodipodi:cx="25.75" inkscape:r_cx="true" inkscape:r_cy="true" sodipodi:type="arc" fill="#A1A39F" stroke="#6D6F6A" stroke-width="4.1494" stroke-linecap="round" stroke-linejoin="round" d="
		M142.176-154.251c0,46.095-54.32,83.46-121.331,83.46c-67.006,0-121.329-37.365-121.329-83.46
		c0-46.098,54.322-83.466,121.329-83.466C87.855-237.717,142.176-200.349,142.176-154.251z"/>
	
		<path id="path7042" sodipodi:ry="8.25" sodipodi:rx="14.75" sodipodi:cy="21" sodipodi:cx="25.75" inkscape:r_cx="true" inkscape:r_cy="true" sodipodi:type="arc" fill="#555753" d="
		M91.37-170.786c0,29.945-33.094,54.23-73.91,54.23s-73.907-24.285-73.907-54.23c0-29.948,33.09-54.227,73.907-54.227
		S91.37-200.733,91.37-170.786z"/>
	
		<radialGradient id="path6456_1_" cx="109.8662" cy="-20.5293" r="87.0675" gradientTransform="matrix(1.066 0 0 -1.0664 -95.4358 -124.6118)" gradientUnits="userSpaceOnUse">
		<stop  offset="0" style="stop-color:#767676"/>
		<stop  offset="1" style="stop-color:#484848"/>
	</radialGradient>
	
		<path id="path6456" sodipodi:nodetypes="czccc" inkscape:r_cx="true" inkscape:r_cy="true" fill="url(#path6456_1_)" stroke="#3B3D39" stroke-width="6.1524" d="
		M175.136-55.02c0,0-54.591-24.513-89.558-21.425c-37.276,3.287-99.535,5.492-123.943-33.069
		c103.611,31.261,151.413-20.638,221.54,8.592L175.136-55.02z"/>
	
		<linearGradient id="path7026_1_" gradientUnits="userSpaceOnUse" x1="178.0342" y1="94.1123" x2="210.2305" y2="13.9938" gradientTransform="matrix(0.8112 0 0 -1.0522 -139.1585 -137.014)">
		<stop  offset="0" style="stop-color:#888A85"/>
		<stop  offset="1" style="stop-color:#B8B9B6"/>
	</linearGradient>
	
		<path id="path7026" sodipodi:ry="8.25" sodipodi:rx="14.75" sodipodi:cy="21" sodipodi:cx="25.75" inkscape:r_cx="true" inkscape:r_cy="true" sodipodi:type="arc" fill="url(#path7026_1_)" stroke="#757972" stroke-width="7.1212" stroke-linecap="round" stroke-linejoin="round" d="
		M94.457-185.725c0,29.491-32.953,53.404-73.612,53.404c-40.654,0-73.612-23.913-73.612-53.404
		c0-29.497,32.958-53.407,73.612-53.407C61.504-239.132,94.457-215.222,94.457-185.725z"/>
	
		<path id="path7012" inkscape:r_cx="true" inkscape:r_cy="true" fill="#D3D7CF" stroke="#888A85" stroke-width="6.1524" stroke-linecap="round" stroke-linejoin="round" d="
		M11.623-274.859c-62.68,3.449-112.104,42.087-112.104,88.777c0,48.955,54.353,88.777,121.326,88.777
		c66.974,0,121.331-39.823,121.331-88.777c0-48.952-54.356-88.777-121.331-88.777c-0.261,0-0.559-0.003-0.82,0
		c-1.559,0.006-3.167-0.051-4.713,0c-0.754,0.024-1.502-0.036-2.253,0C12.563-274.839,12.119-274.886,11.623-274.859z
		 M2.608-260.509c0.415-0.033,0.808,0.024,1.229,0c0.88-0.048,1.767,0,2.665,0c19.128,0,34.634,11.169,34.634,24.811
		c0,13.639-15.506,24.603-34.634,24.603c-19.127,0-34.637-10.964-34.637-24.603C-28.136-248.396-14.678-259.112,2.608-260.509z
		 M78.025-230.369c0.438-0.039,0.787,0.03,1.232,0c0.769-0.048,1.478,0.016,2.253,0c0.317-0.005,0.498,0,0.822,0
		c20.351,0,36.891,11.903,36.891,26.452c0,14.546-16.54,26.244-36.891,26.244c-20.355,0-36.89-11.698-36.89-26.244
		C45.443-217.355,59.814-228.737,78.025-230.369z M-48.014-209.659c1.427-0.117,3.034,0,4.506,0
		c20.939,0,37.918,12.085,37.918,27.064c0,14.976-16.979,27.064-37.918,27.064c-20.935,0-37.915-12.088-37.915-27.064
		C-81.423-196.519-66.904-208.114-48.014-209.659z M27.611-176.034c0.156-0.018,0.252,0.015,0.408,0c0.018,0,0.189,0,0.204,0
		c0.018,0,0.189,0,0.208,0c0.039,0,0.183,0,0.203,0c0.172,0,0.442-0.003,0.617,0c0.018,0,0.162,0,0.203,0
		c1.58-0.129,3.086,0,4.714,0c23.158,0,42.013,13.317,42.013,29.936c0,16.618-18.854,30.137-42.013,30.137
		c-23.162,0-42.016-13.519-42.016-30.137C-7.847-161.07,7.643-173.711,27.611-176.034z"/>
	<linearGradient id="path7044_1_" gradientUnits="userSpaceOnUse" x1="-154.4683" y1="192.6318" x2="-154.3924" y2="229.0983">
		<stop  offset="0" style="stop-color:#FFFFFF"/>
		<stop  offset="1" style="stop-color:#FFFFFF;stop-opacity:0"/>
	</linearGradient>
	
		<path id="path7044" sodipodi:ry="13.435029" sodipodi:rx="18.473166" sodipodi:cy="19.008621" sodipodi:cx="22.185474" inkscape:r_cx="true" inkscape:r_cy="true" sodipodi:type="arc" fill="none" stroke="url(#path7044_1_)" stroke-width="6.1127" stroke-linecap="round" stroke-linejoin="round" d="
		M136.263-186.794c0,45.641-51.563,82.64-115.159,82.64c-63.603,0-115.162-36.999-115.162-82.64s51.559-82.64,115.162-82.64
		C84.7-269.434,136.263-232.436,136.263-186.794z"/>
	
		<linearGradient id="path7067_1_" gradientUnits="userSpaceOnUse" x1="308.8086" y1="-80.3169" x2="273.5921" y2="-73.5196" gradientTransform="matrix(0.9433 0 0 -0.9437 -113.4053 -155.668)">
		<stop  offset="0" style="stop-color:#888A85"/>
		<stop  offset="1" style="stop-color:#888A85;stop-opacity:0"/>
	</linearGradient>
	<path id="path7067" sodipodi:nodetypes="ccccc" inkscape:r_cx="true" inkscape:r_cy="true" fill="url(#path7067_1_)" d="
		M180.705-99.186L173.61-59.49c-17.111-5.744-27.422-10.292-46.372-14.811l2.176-32.233
		C141.863-107.856,161.305-105.603,180.705-99.186z"/>
	
		<linearGradient id="path7136_1_" gradientUnits="userSpaceOnUse" x1="241.415" y1="-28.8379" x2="136.4398" y2="-28.8379" gradientTransform="matrix(1.066 0 0 -1.0664 -97.5374 -132.311)">
		<stop  offset="0" style="stop-color:#FFFFFF"/>
		<stop  offset="1" style="stop-color:#FFFFFF;stop-opacity:0"/>
	</linearGradient>
	
		<path id="path7136" sodipodi:nodetypes="cccc" inkscape:r_cx="true" inkscape:r_cy="true" opacity="0.7033" fill="url(#path7136_1_)" enable-background="new    " d="
		M180.705-100.375l-1.231,5.738c-53.148-19.875-102.085-1.49-153.299,0C95.767-100.43,118.587-119.019,180.705-100.375z"/>
</g>
</svg>
