<?xml version="1.0" encoding="utf-8"?>
<!-- Generator: Adobe Illustrator 15.0.0, SVG Export Plug-In . SVG Version: 6.00 Build 0)  -->
<!DOCTYPE svg PUBLIC "-//W3C//DTD SVG 1.1//EN" "http://www.w3.org/Graphics/SVG/1.1/DTD/svg11.dtd">
<svg version="1.1"
	 id="svg27586" xmlns:dc="http://purl.org/dc/elements/1.1/" xmlns:cc="http://web.resource.org/cc/" xmlns:rdf="http://www.w3.org/1999/02/22-rdf-syntax-ns#" xmlns:svg="http://www.w3.org/2000/svg" xmlns:sodipodi="http://sodipodi.sourceforge.net/DTD/sodipodi-0.dtd" xmlns:inkscape="http://www.inkscape.org/namespaces/inkscape" sodipodi:version="0.32" inkscape:version="0.44" sodipodi:docname="shop.svg" sodipodi:docbase="E:\dev_clean\src\houdini\support\icons\networks"
	 xmlns="http://www.w3.org/2000/svg" xmlns:xlink="http://www.w3.org/1999/xlink" x="0px" y="0px" width="400px" height="400px"
	 viewBox="-176 -352 400 400" enable-background="new -176 -352 400 400" xml:space="preserve">
<sodipodi:namedview  id="base" inkscape:zoom="15.75" borderopacity="1.0" bordercolor="#666666" pagecolor="#ffffff" inkscape:cy="23.737158" inkscape:cx="26.525693" inkscape:window-y="65" inkscape:window-x="312" inkscape:window-height="988" inkscape:window-width="1281" inkscape:current-layer="layer1" inkscape:document-units="px" inkscape:pageshadow="2" inkscape:pageopacity="0.0" showgrid="true" inkscape:grid-bbox="true">
	</sodipodi:namedview>
<g id="Queue">
	<path id="Black" d="M24-351h-150c-33,0-50,17-50,47v153C-176-40.543-86.457,49,24,49s200-89.543,200-200S134.457-351,24-351z"/>
	<circle id="Grey" fill="#616161" cx="25.25" cy="-152.25" r="185.25"/>
	<circle id="DarkGrey" fill="#3A3A3A" cx="25.25" cy="-152.25" r="158.25"/>
	<path id="White" fill="#F7F7F7" d="M24-317.667h-134c-19.334,0-32.668,13.334-32.668,33V-151c0,92.094,74.823,166.5,166.918,166.5
		C116.344,15.5,191-59.156,191-151.25S116.094-317.667,24-317.667z M123.988-79.684c0,13.895-49.971,47.375-99.941,47.375
		c-49.969,0-99.94-35.824-99.94-51.396s0-8.604,0-18.146c0-9.543,2.874-16.403,11.494-16.403c13.491,0,50.97,33.313,88.448,33.313
		s73.955-33.313,86.947-33.313c12.994,0,12.994,8.872,12.994,16.403L123.988-79.684L123.988-79.684z M24.047-118.417
		c-49.971,0-99.94-33.313-99.94-51.728c0-10.044,2.874-15.066,11.494-15.066c13.491,0,50.97,33.313,88.448,33.313
		s73.955-33.313,86.947-33.313c12.994,0,12.994,7.031,12.994,15.066C123.988-151.73,74.02-118.417,24.047-118.417z M24.047-186.215
		c-49.971,1.507-99.639-37.335-99.94-48.044c-0.2-7.114,0.802-16.541,11.494-16.74c13.489-0.253,49.845,31.639,88.448,31.639
		s73.955-31.639,86.947-31.639c12.994,0,12.994,7.365,12.994,16.74C123.988-218.69,74.02-187.722,24.047-186.215z"/>
	<path id="Shadows" fill="#C6C6C6" d="M124-240.667c0,0-0.066,0.047-0.188,0.129c0.176,1.932,0.178,4.047,0.178,6.279
		c0,15.568-49.971,46.537-99.941,48.044c-39.381,1.188-78.752-22.678-93.676-38.092l42.08,56.6
		c15.398,8.036,33.494,15.809,51.596,15.809c37.479,0,73.955-33.313,86.947-33.313c12.994,0,12.994,7.031,12.994,15.066
		c0,18.415-49.971,51.728-99.941,51.728c-35.455,0-70.903-16.771-88.51-33.09l32.135,48.223
		c16.359,8.853,36.365,18.347,56.375,18.347c37.479,0,73.955-33.313,86.947-33.313c12.994,0,12.994,8.872,12.994,16.404v22.162
		c0,13.895-49.971,47.375-99.941,47.375c-47.34,0-94.67-32.146-99.525-48.771L-76-80.833l53.396,89.687
		c0,0,30.592,6.646,46.854,6.646c84.547,0,154.398-62.924,165.277-144.496C157.332-180.042,124-240.667,124-240.667z
		 M-75.584-232.623c-0.271-0.163-0.416-0.254-0.416-0.254l0.658,0.886C-75.435-232.208-75.516-232.418-75.584-232.623z
		 M-75.801-168.808L-76-168.821l0.24,0.362C-75.776-168.577-75.787-168.692-75.801-168.808z"/>
</g>
<g id="layer1" inkscape:label="Layer 1" inkscape:groupmode="layer">
	
		<radialGradient id="path42760_1_" cx="140.1445" cy="-1095.3066" r="115.8008" gradientTransform="matrix(0.9699 0 0 -0.2331 -109.9399 -286.1197)" gradientUnits="userSpaceOnUse">
		<stop  offset="0" style="stop-color:#2E3436"/>
		<stop  offset="1" style="stop-color:#2E3436;stop-opacity:0"/>
	</radialGradient>
	
		<path id="path42760" sodipodi:ry="4.8571429" sodipodi:rx="21.111111" sodipodi:cy="43.015873" sodipodi:cx="23.396826" sodipodi:type="arc" display="none" fill="url(#path42760_1_)" d="
		M138.287-30.826C138.308-15.92,88.044-3.838,26.023-3.827C-36-3.827-86.29-15.904-86.309-30.81c0-0.005,0-0.011,0-0.016
		c-0.019-14.905,50.243-26.988,112.262-26.993c62.021-0.005,112.312,12.077,112.334,26.977
		C138.287-30.836,138.287-30.831,138.287-30.826z"/>
	<g id="g1981" transform="matrix(0.866025,-0.5,0.5,0.866025,-7.434189,14.90572)">
		
			<radialGradient id="path42731_1_" cx="-14.1941" cy="-152.0702" r="105.5761" gradientTransform="matrix(1.3626 0.3365 0.7247 -0.7808 203.2026 -297.7113)" gradientUnits="userSpaceOnUse">
			<stop  offset="0" style="stop-color:#FF2727"/>
			<stop  offset="1" style="stop-color:#A60C0C"/>
		</radialGradient>
		<path id="path42731" sodipodi:nodetypes="csccc" fill="url(#path42731_1_)" d="M113.063-241.35
			C48.122-241.351-4.584-189.61-4.583-125.861c-0.001,8.218,4.721,33.09,6.388,40.818C67.776-64.56,195.028-96.787,215.811-180.26
			C192.899-217.697,150.93-241.349,113.063-241.35z"/>
		
			<radialGradient id="path42721_1_" cx="26.3558" cy="-406.3046" r="105.8696" gradientTransform="matrix(0.893 0.0196 0.1836 -0.7734 140.3472 -363.5703)" gradientUnits="userSpaceOnUse">
			<stop  offset="0" style="stop-color:#3B74BC"/>
			<stop  offset="1" style="stop-color:#264A78"/>
		</radialGradient>
		<path id="path42721" sodipodi:nodetypes="ccsc" fill="url(#path42721_1_)" d="M224.798-155.72
			C182.304-71.966,56.839-56.057,9.027-67.527C42.965-21.283,82.559-10.719,112.368-10.72
			C177.248-10.72,239.642-65.51,224.798-155.72z"/>
		
			<linearGradient id="path42717_1_" gradientUnits="userSpaceOnUse" x1="2.7609" y1="-206.7906" x2="218.215" y2="-132.6222" gradientTransform="matrix(0.8641 0.5014 0.4989 -0.8684 110.0637 -252.3041)">
			<stop  offset="0" style="stop-color:#FFFFFF"/>
			<stop  offset="1" style="stop-color:#CECEC8"/>
		</linearGradient>
		<path id="path42717" sodipodi:nodetypes="ccccc" fill="url(#path42717_1_)" d="M-2.814-101.921
			c66.26,20.705,192.23-13.853,209.338-92.396c15.691,20.662,21.373,33.828,21.607,59.044
			C186.274-52.961,76.305-41.009,23.708-50.751C10.012-62.084,2.709-75.485-2.814-101.921z"/>
	</g>
	
		<radialGradient id="path42695_1_" cx="60.6816" cy="146.7822" r="35.6479" gradientTransform="matrix(1.3756 0.2322 1.0544 -1.9781 -270.7553 85.325)" gradientUnits="userSpaceOnUse">
		<stop  offset="0" style="stop-color:#EEEEEC;stop-opacity:0.5464"/>
		<stop  offset="1" style="stop-color:#EEEEEC;stop-opacity:0"/>
	</radialGradient>
	
		<path id="path42695" sodipodi:ry="12.285714" sodipodi:rx="6.5" sodipodi:cy="18.857143" sodipodi:cx="19.785715" sodipodi:type="arc" fill="url(#path42695_1_)" d="
		M16.525-182.66c-20.759,38.945-59.543,66.811-86.627,62.237c-27.082-4.568-32.209-39.847-11.45-78.792l0,0
		c20.759-38.944,59.54-66.808,86.625-62.237C32.156-256.88,37.287-221.604,16.525-182.66L16.525-182.66z"/>
	
		<path id="path42719" sodipodi:ry="21.190475" sodipodi:rx="21.190475" sodipodi:cy="22.047619" sodipodi:cx="23.285715" sodipodi:type="arc" fill="none" stroke="#2E3436" stroke-width="5.988" d="
		M143.449-149.759c0,63.784-52.675,115.489-117.648,115.489S-91.844-85.975-91.844-149.759c0-63.785,52.671-115.49,117.645-115.49
		S143.449-213.544,143.449-149.759z"/>
	<linearGradient id="path42770_1_" gradientUnits="userSpaceOnUse" x1="-151.8755" y1="224.2227" x2="-152.5535" y2="176.2835">
		<stop  offset="0" style="stop-color:#EEEEEC"/>
		<stop  offset="1" style="stop-color:#EEEEEC;stop-opacity:0"/>
	</linearGradient>
	
		<path id="path42770" sodipodi:ry="21.190475" sodipodi:rx="21.190475" sodipodi:cy="22.047619" sodipodi:cx="23.285715" sodipodi:type="arc" fill="none" stroke="url(#path42770_1_)" stroke-width="6.2925" d="
		M137.986-149.433c0,60.577-50.227,109.689-112.172,109.689c-61.948,0-112.169-49.112-112.169-109.689
		c0-60.579,50.221-109.687,112.169-109.687C87.76-259.119,137.986-210.012,137.986-149.433z"/>
</g>
</svg>
