<?xml version="1.0" encoding="utf-8"?>
<!-- Generator: Adobe Illustrator 15.0.0, SVG Export Plug-In . SVG Version: 6.00 Build 0)  -->
<!DOCTYPE svg PUBLIC "-//W3C//DTD SVG 1.1//EN" "http://www.w3.org/Graphics/SVG/1.1/DTD/svg11.dtd">
<svg version="1.1"
	 id="svg15621" sodipodi:version="0.32" inkscape:version="0.44" sodipodi:docname="scene.svg" sodipodi:docbase="e:\dev_clean\src\houdini\support\icons\networks" xmlns:ns="http://ns.adobe.com/AdobeIllustrator/10.0/" xmlns:inkscape="http://www.inkscape.org/namespaces/inkscape" xmlns:sodipodi="http://sodipodi.sourceforge.net/DTD/sodipodi-0.dtd" xmlns:cc="http://web.resource.org/cc/" xmlns:rdf="http://www.w3.org/1999/02/22-rdf-syntax-ns#" xmlns:svg="http://www.w3.org/2000/svg" xmlns:dc="http://purl.org/dc/elements/1.1/"
	 xmlns="http://www.w3.org/2000/svg" xmlns:xlink="http://www.w3.org/1999/xlink" x="0px" y="0px" width="400px" height="400px"
	 viewBox="0 0 400 400" enable-background="new 0 0 400 400" xml:space="preserve">
<sodipodi:namedview  stroke="#f57900" fill="#2e3436" id="base" inkscape:cx="31.5" inkscape:cy="18.463717" pagecolor="#ffffff" bordercolor="#666666" borderopacity="1.0" inkscape:zoom="8.4205607" inkscape:pageopacity="0.0" inkscape:pageshadow="2" inkscape:document-units="px" inkscape:current-layer="layer1" inkscape:window-width="1568" inkscape:window-height="1068" inkscape:window-x="83" inkscape:window-y="73">
	</sodipodi:namedview>
<g id="Layer_1">
	<g id="Queue">
		<path id="Black" d="M200,0H50C17,0,0,17,0,47v153c0,110.457,89.543,200,200,200s200-89.543,200-200S310.457,0,200,0z"/>
		<circle id="Grey" fill="#616161" cx="201.25" cy="198.75" r="185.25"/>
		<circle id="DarkGrey" fill="#3A3A3A" cx="201.25" cy="198.75" r="158.25"/>
		<path id="White" fill="#F7F7F7" d="M200,33.333H66c-19.333,0-32.667,13.334-32.667,33V200c0,92.094,74.823,166.5,166.917,166.5
			S367,291.844,367,199.75S292.094,33.333,200,33.333z M299.988,271.316c0,13.895-49.971,47.375-99.941,47.375
			c-49.968,0-99.94-35.824-99.94-51.396s0-8.604,0-18.146s2.874-16.402,11.494-16.402c13.492,0,50.97,33.313,88.448,33.313
			c37.479,0,73.955-33.313,86.947-33.313c12.994,0,12.994,8.872,12.994,16.402L299.988,271.316L299.988,271.316z M200.047,232.583
			c-49.97,0-99.94-33.313-99.94-51.728c0-10.044,2.874-15.066,11.494-15.066c13.492,0,50.97,33.313,88.448,33.313
			c37.479,0,73.955-33.313,86.947-33.313c12.994,0,12.994,7.031,12.994,15.066C299.988,199.27,250.02,232.583,200.047,232.583z
			 M200.047,164.785c-49.97,1.507-99.639-37.335-99.94-48.044c-0.2-7.114,0.801-16.541,11.494-16.74
			c13.489-0.253,49.845,31.639,88.448,31.639c38.604,0,73.955-31.639,86.947-31.639c12.994,0,12.994,7.365,12.994,16.74
			C299.988,132.31,250.02,163.278,200.047,164.785z"/>
		<path id="Shadows" fill="#C6C6C6" d="M300,110.333c0,0-0.066,0.047-0.188,0.129c0.176,1.932,0.178,4.047,0.178,6.279
			c0,15.568-49.971,46.537-99.941,48.044c-39.38,1.188-78.752-22.678-93.676-38.092l42.08,56.6
			c15.399,8.036,33.494,15.809,51.596,15.809c37.479,0,73.955-33.313,86.947-33.313c12.994,0,12.994,7.031,12.994,15.066
			c0,18.415-49.971,51.728-99.941,51.728c-35.455,0-70.903-16.771-88.51-33.09l32.136,48.223
			c16.359,8.853,36.365,18.347,56.374,18.347c37.479,0,73.955-33.313,86.947-33.313c12.994,0,12.994,8.872,12.994,16.404v22.162
			c0,13.895-49.971,47.375-99.941,47.375c-47.339,0-94.669-32.146-99.525-48.771L100,270.167l53.397,89.687
			c0,0,30.591,6.646,46.853,6.646c84.547,0,154.398-62.924,165.277-144.496C333.332,170.958,300,110.333,300,110.333z
			 M100.416,118.377c-0.27-0.163-0.416-0.254-0.416-0.254l0.659,0.886C100.566,118.792,100.485,118.582,100.416,118.377z
			 M100.199,182.192L100,182.179l0.241,0.362C100.224,182.423,100.213,182.308,100.199,182.192z"/>
	</g>
</g>
<g id="layer1" inkscape:label="Layer 1" inkscape:groupmode="layer">
	<g id="g18942" transform="matrix(1.086429,0,0,1.086429,-187.5965,-308.2733)">
		
			<linearGradient id="path8642_1_" gradientUnits="userSpaceOnUse" x1="710.7357" y1="1073.433" x2="892.811" y2="1073.433" gradientTransform="matrix(1.1803 0 0 1.1803 -572.657 -759.1317)">
			<stop  offset="0.0056" style="stop-color:#7E807B"/>
			<stop  offset="0.3051" style="stop-color:#656968"/>
			<stop  offset="0.7321" style="stop-color:#4B5355"/>
			<stop  offset="1" style="stop-color:#424B4F"/>
		</linearGradient>
		<path id="path8642" ns:knockout="Off" fill="url(#path8642_1_)" stroke="#161819" stroke-width="4.4781" d="M266.221,455.465
			h182.075v100.138c0,2.546-2.062,4.606-4.602,4.606H270.826c-2.547,0-4.604-2.061-4.604-4.606V455.465z"/>
		<g id="g8644">
			
				<linearGradient id="path8651_1_" gradientUnits="userSpaceOnUse" x1="863.0804" y1="1115.7898" x2="685.527" y2="1015.7967" gradientTransform="matrix(1.1803 0 0 1.1803 -572.657 -759.1317)">
				<stop  offset="0" style="stop-color:#424B4F"/>
				<stop  offset="1" style="stop-color:#889599"/>
			</linearGradient>
			<path id="path8651" ns:knockout="Off" fill="url(#path8651_1_)" d="M443.694,457.766H268.523v100.138h177.47V457.766H443.694z
				 M441.389,462.37c0,4.273,0,86.652,0,90.927c-4.421,0-163.843,0-168.262,0c0-4.275,0-86.655,0-90.927
				C277.546,462.37,436.968,462.37,441.389,462.37z"/>
		</g>
		<polygon id="polygon8653" ns:knockout="Off" fill="#10100F" points="398.56,427.063 420.071,455.465 442.171,455.465 
			420.659,427.063 		">
		</polygon>
		<polygon id="polygon8655" ns:knockout="Off" fill="#10100F" points="354.364,427.063 375.872,455.465 397.972,455.465 
			376.461,427.063 		">
		</polygon>
		<polygon id="polygon8657" ns:knockout="Off" fill="#10100F" points="310.17,427.063 331.681,455.465 353.781,455.465 
			332.268,427.063 		">
		</polygon>
		<polygon id="polygon8659" ns:knockout="Off" fill="#10100F" points="265.972,427.063 287.483,455.465 309.582,455.465 
			288.07,427.063 		">
		</polygon>
		<path id="path8661" ns:knockout="Off" fill="#10100F" d="M436.914,362.431c2.591-0.354,4.991,1.244,5.346,4.318l-12.282,26.18
			l-24.55,5.22l15.139-32.257L436.914,362.431z"/>
		<polygon id="polygon8663" ns:knockout="Off" fill="#10100F" points="356.336,408.583 371.469,376.326 396.018,371.11 
			380.88,403.367 		">
		</polygon>
		<polygon id="polygon8665" ns:knockout="Off" fill="#10100F" points="322.38,386.769 307.247,419.02 331.791,413.804 
			346.925,381.547 		">
		</polygon>
		<path id="path8667" ns:knockout="Off" fill="#10100F" d="M263.006,419.122l10.278-21.925l24.547-5.217l-15.132,32.257
			l-13.187,2.798c-2.951,0.364-5.059-0.873-5.57-3.522L263.006,419.122z"/>
		
			<line id="line8669" ns:knockout="Off" fill="none" stroke="#EFEEEC" stroke-width="4.4781" x1="289.936" y1="503.404" x2="418.705" y2="503.404">
		</line>
		
			<line id="line8671" ns:knockout="Off" fill="none" stroke="#EFEEEC" stroke-width="4.4781" x1="289.936" y1="522.052" x2="332.675" y2="522.052">
		</line>
		
			<line id="line8673" ns:knockout="Off" fill="none" stroke="#EFEEEC" stroke-width="4.4781" x1="289.936" y1="538.742" x2="349.365" y2="538.742">
		</line>
		<path id="path8675" ns:knockout="Off" fill="none" stroke="#EFEEEC" stroke-width="4.4781" d="M295.379,487.116
			c3.139,1.05,9.58,3.29,12.821,1.911c2.547-1.084,1.627-0.338,2.252-2.747c0.635-2.422,0-5.745,0-8.273
			c0.236,7.126-2.27,16.413-2.26,24.413c0,3.753,0,7.511,0,11.257c0-9.129,0.519-17.871,1.505-26.83
			c0.06,1.875,1.119,5.455,3.393,5.551c1.943,0.083,4.221-3.716,5.299-5.169c-0.045,3.166,2.018,6.224,3.075,9.154
			c1.658-2.252,5.144-5.458,5.194-8.447c-0.101,3.215,0.379,6.713,2.367,9.23c5.022-5.964,3.282-15.143,3.282-22.381
			c-0.478,8.012,2.942,14.635,4.946,21.951c1.515-2.546,4.469-4.842,7.435-4.486c0.199-3.774-0.511-9.353,0.728-12.643
			c0.199,3.24-0.236,8.401,1.59,11.222c1.098,1.702,2.646,1.618,3.77,3.455"/>
		<path id="path8677" ns:knockout="Off" fill="none" stroke="#EFEEEC" stroke-width="4.4781" d="M336.322,522.6
			c0.978-4.022,3.669-10.19,6.224-13.501c0.681,3.841,0.238,9.114,2.489,12.433c2.814-2.276,6.276-4.189,7.212-7.98
			c2.003,2.524,3.522,5.33,3.285,8.653c3.841,0.253,5.782-2.677,7.603-4.83c2.864-3.369,6.605-4.85,10.732-6.605
			c-0.922,2.88-3.324,4.386-3.347,7.606c1.688,0.227,3.493-0.067,5.123-0.365c-0.343-2.458,1.826-4.296,4.245-3.737
			c2.107,0.484,3.169,3.05,3.8,4.826c1.791-1.163,3.733-3.009,5.91-3.448c0.331,0.977,0.819,1.225,0.735,2.333
			c0-4.511,0.208-8.98,0.365-13.487c0.219-5.972-1.755-11.939-1.411-17.737c0.072,13.26,4.475,26.259,4.18,39.415
			c-1.658-6.485-0.276-12.631,3.524-17.775c0.14,1.309,0.45,2.533,0.323,3.89c-0.357,3.815-3.949,6.133-4.147,9.94
			c2.524-1.026,8.687-3.392,9.37-6.173c-0.04,7.556,6.071,0.695,7.743-1.101c1.361,1.018,1.942,3.013,3.725,2.979
			c0.129-1.92,1.275-4.639,2.477-6.15"/>
		<g id="g8679">
			
				<linearGradient id="path8688_1_" gradientUnits="userSpaceOnUse" x1="703.3865" y1="977.6365" x2="894.3375" y2="977.6365" gradientTransform="matrix(1.1803 0 0 1.1803 -572.657 -759.1317)">
				<stop  offset="0" style="stop-color:#383C40"/>
				<stop  offset="0.4888" style="stop-color:#000000"/>
				<stop  offset="1" style="stop-color:#383C40"/>
			</linearGradient>
			<path id="path8688" ns:knockout="Off" fill="url(#path8688_1_)" d="M436.17,360.221l-173.154,36.805
				c-1.804,0.387-3.352,1.444-4.351,2.992c-1.008,1.547-1.349,3.393-0.966,5.198l3.987,18.776c0.792,3.725,4.47,6.112,8.19,5.322
				l173.151-36.805c1.809-0.387,3.355-1.446,4.359-2.992c1.001-1.552,1.34-3.397,0.96-5.202l-3.986-18.772
				C443.57,361.825,439.895,359.435,436.17,360.221z M266.189,423.038l-3.987-18.774c-0.129-0.604-0.015-1.229,0.318-1.736
				c0.331-0.511,0.857-0.871,1.451-0.999l173.147-36.805c1.246-0.262,2.467,0.534,2.734,1.782v-0.004l3.987,18.77
				c0.129,0.604,0.013,1.225-0.319,1.736c-0.331,0.511-0.852,0.871-1.444,0.999l-173.151,36.805
				C267.681,425.075,266.456,424.282,266.189,423.038z"/>
		</g>
		<g id="g8690" opacity="0.75">
			
				<linearGradient id="path8697_1_" gradientUnits="userSpaceOnUse" x1="780.8964" y1="966.7269" x2="788.3793" y2="990.9028" gradientTransform="matrix(1.1803 0 0 1.1803 -572.657 -759.1317)">
				<stop  offset="0" style="stop-color:#FFFFFF"/>
				<stop  offset="1" style="stop-color:#D3D7CF"/>
			</linearGradient>
			<path id="path8697" ns:knockout="Off" fill="url(#path8697_1_)" d="M437.126,364.724l-175.407,37.283l4.944,23.283
				l177.661-37.757l-4.949-23.283L437.126,364.724z M435.83,369.707c0.642,3.01,2.396,11.256,3.037,14.271
				c-4.328,0.927-164.324,34.93-168.65,35.851c-0.646-3.01-2.398-11.257-3.04-14.271C271.51,404.633,431.501,370.632,435.83,369.707
				z"/>
		</g>
		<g id="g8699" opacity="0.8">
			
				<linearGradient id="path8706_1_" gradientUnits="userSpaceOnUse" x1="765.2182" y1="992.6674" x2="789.6601" y2="1018.3303" gradientTransform="matrix(1.1803 0 0 1.1803 -572.657 -759.1317)">
				<stop  offset="0" style="stop-color:#FFFFFF"/>
				<stop  offset="1" style="stop-color:#D3D7CF"/>
			</linearGradient>
			<path id="path8706" ns:knockout="Off" fill="url(#path8706_1_)" d="M446.421,429.364h-179.32v23.804h181.625v-23.804H446.421z
				 M444.12,433.968c0,3.085,0,11.511,0,14.596c-4.424,0-167.991,0-172.415,0c0-3.085,0-11.511,0-14.596
				C276.124,433.968,439.696,433.968,444.12,433.968z"/>
		</g>
		<g id="g8708">
			
				<linearGradient id="path8717_1_" gradientUnits="userSpaceOnUse" x1="791.3737" y1="1000.4688" x2="785.6185" y2="1032.6978" gradientTransform="matrix(1.1803 0 0 1.1803 -572.657 -759.1317)">
				<stop  offset="0" style="stop-color:#202526"/>
				<stop  offset="0.5618" style="stop-color:#42484C"/>
				<stop  offset="1" style="stop-color:#000000"/>
			</linearGradient>
			<path id="path8717" ns:knockout="Off" fill="url(#path8717_1_)" d="M269.398,424.76c-3.807,0-6.907,3.104-6.907,6.907v19.198
				c0,3.803,3.1,6.907,6.907,6.907h177.019c3.809,0,6.907-3.104,6.907-6.907v-19.198c0-3.803-3.098-6.907-6.907-6.907H269.398z
				 M267.095,450.861v-19.198c0-1.267,1.036-2.303,2.303-2.303h177.019c0.618,0,1.192,0.244,1.631,0.672
				c0.439,0.437,0.671,1.018,0.671,1.631v19.198c0,1.266-1.036,2.301-2.301,2.301h-177.02
				C268.132,453.162,267.095,452.132,267.095,450.861z"/>
		</g>
		
			<linearGradient id="path8724_1_" gradientUnits="userSpaceOnUse" x1="717.9267" y1="983.5322" x2="745.6983" y2="1030.1294" gradientTransform="matrix(1.1803 0 0 1.1803 -572.657 -759.1317)">
			<stop  offset="0" style="stop-color:#EFEEEC"/>
			<stop  offset="1" style="stop-color:#889599"/>
		</linearGradient>
		<path id="path8724" ns:knockout="Off" fill="url(#path8724_1_)" stroke="#2D3335" stroke-width="4.4781" d="M333.486,447.122
			c0,1.395-1.132,2.529-2.533,2.529h-57.964c-1.399,0-2.531-1.134-2.531-2.529v-41.587c0-1.405,1.132-2.533,2.531-2.533h31.257
			c1.399,0,2.533,2.533,2.533,2.533L333.486,447.122z"/>
		
			<circle id="circle8726" sodipodi:cx="179.2" sodipodi:cy="295.59399" sodipodi:rx="0.55900002" sodipodi:ry="0.55900002" ns:knockout="Off" fill="#FFFFFF" cx="284.597" cy="414.071" r="2.574">
		</circle>
		
			<circle id="circle8728" sodipodi:cx="179.2" sodipodi:cy="300.62" sodipodi:rx="0.55900002" sodipodi:ry="0.55900002" ns:knockout="Off" fill="#FFFFFF" cx="284.597" cy="437.21" r="2.574">
		</circle>
		
			<circle id="circle8730" sodipodi:cx="184.015" sodipodi:cy="300.62" sodipodi:rx="0.55800003" sodipodi:ry="0.55800003" ns:knockout="Off" fill="#FFFFFF" cx="306.763" cy="437.209" r="2.569">
		</circle>
	</g>
</g>
</svg>
