<?xml version="1.0" encoding="utf-8"?>
<!-- Generator: Adobe Illustrator 15.0.0, SVG Export Plug-In . SVG Version: 6.00 Build 0)  -->
<!DOCTYPE svg PUBLIC "-//W3C//DTD SVG 1.1//EN" "http://www.w3.org/Graphics/SVG/1.1/DTD/svg11.dtd">
<svg version="1.1"
	 id="svg2108" xmlns:dc="http://purl.org/dc/elements/1.1/" xmlns:cc="http://web.resource.org/cc/" xmlns:rdf="http://www.w3.org/1999/02/22-rdf-syntax-ns#" xmlns:svg="http://www.w3.org/2000/svg" xmlns:sodipodi="http://sodipodi.sourceforge.net/DTD/sodipodi-0.dtd" xmlns:inkscape="http://www.inkscape.org/namespaces/inkscape" sodipodi:version="0.32" inkscape:version="0.44" sodipodi:docname="cop2.svg" sodipodi:docbase="e:\dev_clean\src\houdini\support\icons\networks"
	 xmlns="http://www.w3.org/2000/svg" xmlns:xlink="http://www.w3.org/1999/xlink" x="0px" y="0px" width="400px" height="400px"
	 viewBox="-176 -352 400 400" enable-background="new -176 -352 400 400" xml:space="preserve">
<sodipodi:namedview  fill="#9db029" stroke="#727e0a" id="base" inkscape:zoom="12" borderopacity="1.0" bordercolor="#666666" pagecolor="#ffffff" inkscape:cy="23.265518" inkscape:cx="23.243104" inkscape:window-y="-2" inkscape:window-x="298" inkscape:window-height="1092" inkscape:window-width="1318" inkscape:current-layer="layer1" inkscape:document-units="px" inkscape:pageshadow="2" inkscape:pageopacity="0.0" showgrid="true" inkscape:showpageshadow="false" inkscape:grid-bbox="true">
	</sodipodi:namedview>
<g id="Queue">
	<path id="Black" d="M24-351h-150c-33,0-50,17-50,47v153C-176-40.543-86.457,49,24,49s200-89.543,200-200S134.457-351,24-351z"/>
	<circle id="Grey" fill="#616161" cx="25.25" cy="-152.25" r="185.25"/>
	<circle id="DarkGrey" fill="#3A3A3A" cx="25.25" cy="-152.25" r="158.25"/>
	<path id="White" fill="#F7F7F7" d="M24-317.667h-134c-19.334,0-32.668,13.334-32.668,33V-151c0,92.094,74.823,166.5,166.918,166.5
		C116.344,15.5,191-59.156,191-151.25S116.094-317.667,24-317.667z M123.988-79.684c0,13.895-49.971,47.375-99.941,47.375
		c-49.969,0-99.94-35.824-99.94-51.396s0-8.604,0-18.146c0-9.543,2.874-16.403,11.494-16.403c13.491,0,50.97,33.313,88.448,33.313
		s73.955-33.313,86.947-33.313c12.994,0,12.994,8.872,12.994,16.403L123.988-79.684L123.988-79.684z M24.047-118.417
		c-49.971,0-99.94-33.313-99.94-51.728c0-10.044,2.874-15.066,11.494-15.066c13.491,0,50.97,33.313,88.448,33.313
		s73.955-33.313,86.947-33.313c12.994,0,12.994,7.031,12.994,15.066C123.988-151.73,74.02-118.417,24.047-118.417z M24.047-186.215
		c-49.971,1.507-99.639-37.335-99.94-48.044c-0.2-7.114,0.802-16.541,11.494-16.74c13.489-0.253,49.845,31.639,88.448,31.639
		s73.955-31.639,86.947-31.639c12.994,0,12.994,7.365,12.994,16.74C123.988-218.69,74.02-187.722,24.047-186.215z"/>
	<path id="Shadows" fill="#C6C6C6" d="M124-240.667c0,0-0.066,0.047-0.188,0.129c0.176,1.932,0.178,4.047,0.178,6.279
		c0,15.568-49.971,46.537-99.941,48.044c-39.381,1.188-78.752-22.678-93.676-38.092l42.08,56.6
		c15.398,8.036,33.494,15.809,51.596,15.809c37.479,0,73.955-33.313,86.947-33.313c12.994,0,12.994,7.031,12.994,15.066
		c0,18.415-49.971,51.728-99.941,51.728c-35.455,0-70.903-16.771-88.51-33.09l32.135,48.223
		c16.359,8.853,36.365,18.347,56.375,18.347c37.479,0,73.955-33.313,86.947-33.313c12.994,0,12.994,8.872,12.994,16.404v22.162
		c0,13.895-49.971,47.375-99.941,47.375c-47.34,0-94.67-32.146-99.525-48.771L-76-80.833l53.396,89.687
		c0,0,30.592,6.646,46.854,6.646c84.547,0,154.398-62.924,165.277-144.496C157.332-180.042,124-240.667,124-240.667z
		 M-75.584-232.623c-0.271-0.163-0.416-0.254-0.416-0.254l0.658,0.886C-75.435-232.208-75.516-232.418-75.584-232.623z
		 M-75.801-168.808L-76-168.821l0.24,0.362C-75.776-168.577-75.787-168.692-75.801-168.808z"/>
</g>
<g id="layer1" inkscape:label="cipek" inkscape:groupmode="layer">
	<g id="g22971" transform="matrix(1.151909,0,0,1.151909,0.370676,-7.291632)">
		<path id="path22918" sodipodi:nodetypes="ccccc" fill="#2E3436" fill-opacity="0.1255" d="M20.72-88.554l109.652,38.879
			L20.305-1.648L-83.949-49.675L20.72-88.554z"/>
		<path id="path22922" sodipodi:nodetypes="ccccc" fill="#2E3436" fill-opacity="0.1255" d="M20.952-83.068l99.451,34.38
			L20.575-6.222l-94.554-42.466L20.952-83.068z"/>
		<path id="path22924" sodipodi:nodetypes="ccccc" fill="#2E3436" fill-opacity="0.1255" d="M21.183-77.577l89.253,29.465
			L20.845-11.709l-84.856-36.403L21.183-77.577z"/>
		<path id="path22926" sodipodi:nodetypes="ccccc" fill="#2E3436" fill-opacity="0.1255" d="M18.981-72.09L95.48-47.53L18.69-17.2
			L-54.043-47.53L18.981-72.09z"/>
	</g>
	<path id="path23042" sodipodi:nodetypes="cccccccc" fill="#729FCF" fill-opacity="0.4383" d="M-22.354-40.119l6.754-22.245
		l57.204,9.531l-8.737-29.792l46.871,2.782l42.902,17.083l-97.322,43.3L-22.354-40.119z"/>
	<g id="g22977" transform="matrix(1.151909,0,0,1.151909,0.370676,-7.291632)">
		
			<linearGradient id="rect22915_1_" gradientUnits="userSpaceOnUse" x1="31.6013" y1="17.4279" x2="120.1335" y2="-26.9407" gradientTransform="matrix(1.1519 0 0 -1.1519 -68.5059 -90.7159)">
			<stop  offset="0" style="stop-color:#FFFFFF;stop-opacity:0.7529"/>
			<stop  offset="1" style="stop-color:#BEBEBE;stop-opacity:0.7137"/>
		</linearGradient>
		<path id="rect22915" sodipodi:nodetypes="ccccc" fill="url(#rect22915_1_)" stroke="#2E3436" stroke-width="4.765" d="
			M20.72-126.062l109.652,42.994L20.305-35.041L-83.949-83.068L20.72-126.062z"/>
		<path id="path22967" sodipodi:nodetypes="ccccc" fill="none" stroke="#FFFFFF" stroke-width="4.765" d="M20.915-119.659
			l95.483,36.298L20.096-41.443l-90.322-41.918L20.915-119.659z"/>
	</g>
	
		<linearGradient id="path23015_1_" gradientUnits="userSpaceOnUse" x1="134.2139" y1="-22.4809" x2="174.9225" y2="-78.5125" gradientTransform="matrix(1 0 0 -1 -106 -146.9999)">
		<stop  offset="0" style="stop-color:#729FCF"/>
		<stop  offset="1" style="stop-color:#386DA5"/>
	</linearGradient>
	<path id="path23015" sodipodi:nodetypes="cccccccc" fill="url(#path23015_1_)" stroke="#204A87" stroke-width="5.4889" d="
		M-30.128-76.89l7.775-25.611l65.866,10.978l-10.066-34.305l53.978,3.205l49.4,19.662L24.76-53.101L-30.128-76.89z"/>
	<g id="g22991" transform="matrix(1.151909,0,0,1.151909,0.348091,-17.6817)">
		
			<linearGradient id="path22993_1_" gradientUnits="userSpaceOnUse" x1="31.542" y1="61.5962" x2="120.0748" y2="17.2273" gradientTransform="matrix(1.1519 0 0 -1.1519 -68.5292 -80.3262)">
			<stop  offset="0" style="stop-color:#FFFFFF;stop-opacity:0.7529"/>
			<stop  offset="1" style="stop-color:#BEBEBE;stop-opacity:0.7137"/>
		</linearGradient>
		<path id="path22993" sodipodi:nodetypes="ccccc" fill="url(#path22993_1_)" stroke="#2E3436" stroke-width="4.765" d="
			M20.632-166.552l109.652,42.997L20.216-75.528l-104.252-48.027L20.632-166.552z"/>
		<path id="path22995" sodipodi:nodetypes="ccccc" fill="none" stroke="#FFFFFF" stroke-width="4.765" d="M20.827-160.149
			l95.483,36.298l-96.302,41.92l-90.322-41.92L20.827-160.149z"/>
	</g>
	<path id="path23017" fill="#FFFFFF" stroke="#BABDB6" stroke-width="5.4889" d="M33.549-193.067
		c-18.708,0-33.952,6.25-33.952,13.799c0,1.691,0.836,3.168,2.228,4.664c-8.247,0.807-15.379,2.852-20.04,5.593
		c-0.579-0.01-1.083-0.185-1.669-0.185c-18.708,0-33.953,6.253-33.953,13.8c0,7.55,15.245,13.615,33.953,13.615
		c11.693,0,21.923-2.329,28.015-5.969c0.563,0.014,1.101,0,1.669,0c6.569,0,12.618-0.929,17.812-2.238
		c5.191,1.309,11.244,2.238,17.81,2.238c18.707,0,33.77-6.065,33.77-13.612c0-4.899-6.357-9.15-15.952-11.565
		c2.541-1.919,4.08-4.012,4.08-6.341C67.318-186.817,52.261-193.067,33.549-193.067z"/>
	<g id="g23007" transform="matrix(1.151909,0,0,1.151909,0.370676,-28.6817)">
		
			<linearGradient id="path23009_1_" gradientUnits="userSpaceOnUse" x1="31.5979" y1="108.3579" x2="120.1301" y2="63.9893" gradientTransform="matrix(1.1519 0 0 -1.1519 -68.5059 -69.3262)">
			<stop  offset="0" style="stop-color:#FFFFFF;stop-opacity:0.7529"/>
			<stop  offset="1" style="stop-color:#BEBEBE;stop-opacity:0.7137"/>
		</linearGradient>
		<path id="path23009" sodipodi:nodetypes="ccccc" fill="url(#path23009_1_)" stroke="#2E3436" stroke-width="4.765" d="
			M20.72-209.418l109.652,42.997L20.305-118.394l-104.254-48.027L20.72-209.418z"/>
		<path id="path23011" sodipodi:nodetypes="ccccc" fill="none" stroke="#FFFFFF" stroke-width="4.765" d="M20.915-203.015
			l95.483,36.298l-96.302,41.92l-90.322-41.92L20.915-203.015z"/>
	</g>
	<path id="path23026" sodipodi:nodetypes="cscc" fill="#2E3436" stroke="#EEEEEC" stroke-width="5.4889" d="M47.169-180.718
		c-21.953-16.467-18.882-37.519-7.312-41.625c14.172-5.031,42.539-3.201,69.983,13.267
		C93.823-202.673,59.518-186.665,47.169-180.718z"/>
	
		<path id="path23030" sodipodi:ry="2.4583333" sodipodi:rx="4.2916665" sodipodi:cy="9.041667" sodipodi:cx="24.125" sodipodi:type="arc" fill="#8F5902" stroke="#EEEEEC" stroke-width="5.4889" d="
		M49.463-228.518c0,7.453-10.549,13.494-23.561,13.494c-13.009,0-23.556-6.041-23.556-13.494c0-7.451,10.546-13.492,23.556-13.492
		C38.914-242.01,49.463-235.968,49.463-228.518z"/>
	<path id="path23032" sodipodi:nodetypes="cccc" fill="#C0C6BB" d="M33.446-212.737l20.583,2.745l-4.566-11.892L33.446-212.737z"/>
</g>
</svg>
