<?xml version="1.0" encoding="utf-8"?>
<!-- Generator: Adobe Illustrator 15.0.0, SVG Export Plug-In . SVG Version: 6.00 Build 0)  -->
<!DOCTYPE svg PUBLIC "-//W3C//DTD SVG 1.1//EN" "http://www.w3.org/Graphics/SVG/1.1/DTD/svg11.dtd">
<svg version="1.1"
	 id="svg3323" sodipodi:version="0.32" inkscape:version="0.46" sodipodi:docname="fbx.svg" inkscape:output_extension="org.inkscape.output.svg.inkscape" xmlns:inkscape="http://www.inkscape.org/namespaces/inkscape" xmlns:sodipodi="http://sodipodi.sourceforge.net/DTD/sodipodi-0.dtd" xmlns:svg="http://www.w3.org/2000/svg" xmlns:rdf="http://www.w3.org/1999/02/22-rdf-syntax-ns#" xmlns:dc="http://purl.org/dc/elements/1.1/" xmlns:cc="http://creativecommons.org/ns#"
	 xmlns="http://www.w3.org/2000/svg" xmlns:xlink="http://www.w3.org/1999/xlink" x="0px" y="0px" width="400px" height="400px"
	 viewBox="0 0 400 400" enable-background="new 0 0 400 400" xml:space="preserve">
<defs>
	
	
		<inkscape:perspective  inkscape:persp3d-origin="24 : 16 : 1" id="perspective3331" inkscape:vp_x="0 : 24 : 1" inkscape:vp_z="48 : 24 : 1" inkscape:vp_y="0 : 1000 : 0" sodipodi:type="inkscape:persp3d">
		</inkscape:perspective>
	
		<inkscape:perspective  inkscape:persp3d-origin="372.04724 : 350.78739 : 1" id="perspective3340" inkscape:vp_x="0 : 526.18109 : 1" inkscape:vp_z="744.09448 : 526.18109 : 1" inkscape:vp_y="0 : 1000 : 0" sodipodi:type="inkscape:persp3d">
		</inkscape:perspective>
</defs>
<sodipodi:namedview  inkscape:grid-bbox="true" inkscape:window-y="-4" inkscape:window-x="-4" inkscape:window-height="1115" inkscape:window-width="1920" inkscape:current-layer="layer1" inkscape:document-units="px" inkscape:pageshadow="2" inkscape:pageopacity="0.0" id="base" inkscape:cy="8.0189987" inkscape:cx="6.9805221" inkscape:zoom="9.8994949" borderopacity="1.0" bordercolor="#666666" pagecolor="#ffffff" showgrid="true">
	</sodipodi:namedview>
<g id="layer1" inkscape:groupmode="layer" inkscape:label="Layer 1">
	<rect id="rect3879" x="-0.044" y="217.659" width="400.088" height="148.411"/>
	<path id="path3869" sodipodi:nodetypes="cccccc" fill="#FFFFFF" d="M121.058,269.665v60.796h67.613
		c40.185-0.518,50.197-23.723,14.86-31.195c26.311-8.646,14.412-29.483-14.121-29.601H121.058z"/>
	<path id="path3867" sodipodi:nodetypes="ccccccccccc" fill="#FFFFFF" d="M25.216,269.665h84.701v11.194H51.222v16.002h50.52v10.4
		H50.481v24.801H25.96L25.216,269.665z"/>
	<path id="path3871" sodipodi:nodetypes="ccccc" d="M144.837,282.063v13.205h33.061c21.363,0,18.726-12.955,2.596-14.008
		L144.837,282.063z"/>
	<path id="path3873" sodipodi:nodetypes="ccccc" d="M145.143,305.865v13.197h33.065c25.45,0,25.032-14.552,2.596-14L145.143,305.865
		z"/>
	<path id="path3877" fill="#FFFFFF" d="M226.932,271.669h28.229l24.522,17.597l118.499-70.013l-103.651,80.813l41.625,30.012
		h-29.721l-26.752-20.411l-28.605,20.793h-27.859l40.499-31.194L226.932,271.669z"/>
</g>
<g enable-background="new    ">
	<path d="M26.307,54.767c9.629-1.751,23.636-3.063,36.549-3.063c20.354,0,33.704,3.939,42.677,12.037
		c7.222,6.565,11.599,16.633,11.599,28.232c0,19.259-12.256,32.172-27.576,37.425v0.656c11.162,3.939,17.946,14.444,21.448,29.765
		c4.815,20.572,8.317,34.798,11.381,40.488h-19.697c-2.407-4.377-5.69-16.852-9.63-35.236c-4.377-20.354-12.475-28.014-29.764-28.67
		H45.348v63.906H26.307V54.767z M45.348,121.956h19.478c20.354,0,33.266-11.162,33.266-28.014c0-19.041-13.788-27.357-33.923-27.357
		c-9.192,0-15.539,0.657-18.821,1.532V121.956z"/>
	<path d="M144.047,54.985c8.316-1.97,21.667-3.282,34.798-3.282c19.041,0,31.296,3.282,40.27,10.724
		c7.66,5.69,12.475,14.444,12.475,26.044c0,14.444-9.63,26.92-24.949,32.391v0.657c14.007,3.282,30.421,14.882,30.421,36.768
		c0,12.693-5.034,22.542-12.694,29.546c-10.067,9.41-26.7,13.788-50.774,13.788c-13.131,0-23.199-0.876-29.545-1.751V54.985z
		 M163.088,115.391h17.29c19.916,0,31.734-10.725,31.734-24.95c0-17.07-12.912-24.074-32.172-24.074
		c-8.754,0-13.788,0.656-16.852,1.313V115.391z M163.088,185.862c3.939,0.656,9.192,0.875,15.977,0.875
		c19.697,0,37.862-7.222,37.862-28.67c0-19.916-17.29-28.451-38.082-28.451h-15.757V185.862z"/>
	<path d="M262.662,54.985c11.6-1.97,25.388-3.282,40.489-3.282c27.356,0,46.835,6.565,59.747,18.384
		c13.351,12.037,21.011,29.107,21.011,52.963c0,24.074-7.66,43.771-21.229,57.341c-14.007,13.788-36.768,21.229-65.438,21.229
		c-13.788,0-24.95-0.657-34.58-1.751V54.985z M281.703,185.425c4.814,0.656,11.818,0.875,19.259,0.875
		c40.927,0,62.813-22.761,62.813-62.593c0.219-34.799-19.479-56.903-59.748-56.903c-9.849,0-17.29,0.876-22.323,1.97V185.425z"/>
</g>
</svg>
