<?xml version="1.0" encoding="utf-8"?>
<!-- Generator: Adobe Illustrator 15.0.0, SVG Export Plug-In . SVG Version: 6.00 Build 0)  -->
<!DOCTYPE svg PUBLIC "-//W3C//DTD SVG 1.1//EN" "http://www.w3.org/Graphics/SVG/1.1/DTD/svg11.dtd">
<svg version="1.1"
	 id="svg90649" sodipodi:docname="New document 56" inkscape:version="0.48.4 r9939" xmlns:inkscape="http://www.inkscape.org/namespaces/inkscape" xmlns:sodipodi="http://sodipodi.sourceforge.net/DTD/sodipodi-0.dtd" xmlns:svg="http://www.w3.org/2000/svg" xmlns:rdf="http://www.w3.org/1999/02/22-rdf-syntax-ns#" xmlns:dc="http://purl.org/dc/elements/1.1/" xmlns:cc="http://creativecommons.org/ns#"
	 xmlns="http://www.w3.org/2000/svg" xmlns:xlink="http://www.w3.org/1999/xlink" x="0px" y="0px" width="400px" height="400px"
	 viewBox="-176 -352 400 400" enable-background="new -176 -352 400 400" xml:space="preserve">
<sodipodi:namedview  id="base" inkscape:pageopacity="0.0" inkscape:pageshadow="2" inkscape:document-units="px" inkscape:current-layer="layer1" inkscape:window-width="2560" inkscape:window-height="1538" inkscape:window-x="-8" inkscape:window-y="-8" showgrid="true" pagecolor="#ffffff" bordercolor="#666666" borderopacity="1.0" inkscape:zoom="14" inkscape:cx="12.642857" inkscape:cy="22.785714" inkscape:grid-bbox="true" inkscape:window-maximized="1">
	</sodipodi:namedview>
<radialGradient id="path18231_1_" cx="178.2188" cy="2424.6016" r="156.9082" gradientTransform="matrix(1.1205 0 0 0.2947 -172.8468 -712.3391)" gradientUnits="userSpaceOnUse">
	<stop  offset="0" style="stop-color:#000000"/>
	<stop  offset="1" style="stop-color:#000000;stop-opacity:0"/>
</radialGradient>
<path id="path18231" sodipodi:ry="4.954495" sodipodi:cy="40.568256" sodipodi:cx="24.204773" sodipodi:type="arc" sodipodi:rx="18.837402" fill="url(#path18231_1_)" d="
	M202.656,2.199c0,25.524-78.715,46.234-175.805,46.234c-97.097,0-175.811-20.701-175.811-46.234l0,0
	c0-25.542,78.714-46.251,175.811-46.251C123.941-44.052,202.656-23.343,202.656,2.199L202.656,2.199z"/>
<path id="path90670" inkscape:connector-curvature="0" fill="#AD7FA8" stroke="#000000" stroke-width="8" d="M-116.175-274.961
	l10.81-3.539l-5.104,16.175l7.939,68.074l-13.455,21.951h-34l15.67-68.677L-116.175-274.961z"/>
<path id="path90672" inkscape:connector-curvature="0" fill="#FCE94F" stroke="#000000" stroke-width="8" d="M-92.419-297.607
	l17.517,31.85l-19.832,14.161l-2.126,59.469l-22.662-73.63l14.166-12.743l-0.249-5.666L-92.419-297.607z"/>
<path id="path90674" inkscape:connector-curvature="0" fill="#EF2929" stroke="#000000" stroke-width="8" d="M-148.968-167.228
	l34.4-4.363l15.585-24.073l38.243,30.446l18.416,50.269l-14.17,7.785l-41.081-27.6l-9.204,28.315l-28.328,1.342L-148.968-167.228z"
	/>
<path id="path90676" inkscape:connector-curvature="0" fill="#5C3566" stroke="#000000" stroke-width="8" d="M-135.108-100.796
	l29.036-5.662l48.87,44.592l0.707,44.348l-44.253-28.934L-135.108-100.796z"/>
<path id="path90678" inkscape:connector-curvature="0" fill="#73D216" stroke="#000000" stroke-width="8" d="M-97.576-134.081
	l40.374,26.899l0.707,44.6l-51.7-44.6L-97.576-134.081z"/>
<path id="path90680" inkscape:connector-curvature="0" fill="#3465A4" stroke="#000000" stroke-width="8" d="M-56.495-105.758
	l14.17-10.606l31.866,15.568l45.333,77.884l15.568-9.916L45.137,0.426L-4.086,3.679L-49.39-11.044l-9.228-53.636L-56.495-105.758z"
	/>
<path id="path90682" inkscape:connector-curvature="0" fill="#729FCF" stroke="#000000" stroke-width="8" d="M-76.326-265.049
	c4.246,0.707,42.497,19.823,42.497,19.823l-22.666,27.258l-7.788,47.077l-34.709-24.781l5.666-56.638L-76.326-265.049z"/>
<path id="path90684" inkscape:connector-curvature="0" fill="#73D216" stroke="#000000" stroke-width="8" d="M-59.992-324.27
	l14.877,12.742l50.24-0.24l16.293,33.985l-32.577,21.946l-24.077,9.204l-39.659-17.7l-20.291-34.075L-59.992-324.27z"/>
<path id="path90686" inkscape:connector-curvature="0" fill="#F57900" stroke="#000000" stroke-width="8" d="M-58.618-323.095
	l17.7,17.7l46.744-7.081l24.084-9.204l14.17-19.823l-33.082-2.375L-58.618-323.095z"/>
<path id="path90688" inkscape:connector-curvature="0" fill="#3465A4" stroke="#000000" stroke-width="8" d="M26.364-318.857
	l31.17,16.285l31.902-28.128l-46.072-10.81L26.364-318.857z"/>
<path id="path90690" inkscape:connector-curvature="0" fill="#E9B96E" stroke="#000000" stroke-width="8" d="M25.665-320.272
	l75.078,36.815l-19.831,8.496l-60.917-4.954L5.826-311.776L25.665-320.272z"/>
<path id="path90692" inkscape:connector-curvature="0" fill="#8AE234" stroke="#000000" stroke-width="8" d="M97.311-326.744
	l16.17,33.383l-14.869,9.195L62.48-302.564L97.311-326.744z"/>
<path id="path90694" inkscape:connector-curvature="0" sodipodi:nodetypes="ccsccccc" fill="#AD7FA8" stroke="#000000" stroke-width="8" d="
	M100.727-326.744l13.454,34.091c0,0-20.538,6.372-16.285,7.08c4.247,0.708,45.333,40.305,45.333,40.305h24.67l8.297-13.925
	l-14.642-24.964L100.727-326.744z"/>
<path id="path90696" inkscape:connector-curvature="0" fill="#AD7FA8" stroke="#000000" stroke-width="8" d="M-15.413-253.718
	l24.789,13.449l-28.222,37.291l27.514,78.821l-17.712,23.361l-35.408-16.285l-19.124-56.634l7.08-44.254L-15.413-253.718z"/>
<path id="path90698" inkscape:connector-curvature="0" fill="#C17D11" stroke="#000000" stroke-width="8" d="M10.791-240.977
	l50.989,6.373l32.586,23.361l-5.67,45.308l-48.163,55.931L8.668-126.289l-27.514-76.689L10.791-240.977z"/>
<path id="path90700" inkscape:connector-curvature="0" fill="#FCE94F" stroke="#000000" stroke-width="8" d="M-13.29-253.718
	l21.958,14.157l51.697,6.374l24.793-41.773l-62.324-4.954L-13.29-253.718z"/>
<path id="path90702" inkscape:connector-curvature="0" fill="#3465A4" stroke="#000000" stroke-width="8" d="M81.611-274.253
	l19.132-12.035l42.501,41.013l29.03-8.443l-46.746,90.614l-36.824-7.08l-9.639-27.523l-16.569-36.904L81.611-274.253z"/>
<path id="path90704" inkscape:connector-curvature="0" fill="#4E9A06" stroke="#000000" stroke-width="8" d="M176.203-259.201
	l22.996,58.998l3.457,42.338l-53.06,21.669l-24.077-1.415v-26.201L176.203-259.201z"/>
<path id="path90708" inkscape:connector-curvature="0" fill="#73D216" stroke="#000000" stroke-width="8" d="M90.819-170.176
	l34.7,7.788l0.716,26.192l-17.716,36.1L36.287-22.211L-9.044-98.681l18.42-25.477l43.904-9.907L90.819-170.176z"/>
<path id="path90710" inkscape:connector-curvature="0" fill="#F57900" stroke="#000000" stroke-width="8" d="M51.157-36.374
	L46.748,3.664l57.965-13.52l6.646-91.656L51.157-36.374z"/>
<path id="path90712" inkscape:connector-curvature="0" fill="#AD7FA8" stroke="#000000" stroke-width="8" d="M126.235-137.611
	l23.361,0.715l-6.71,96.691l-38.174,25.338l5.23-86.645L126.235-137.611z"/>
<path id="path90714" inkscape:connector-curvature="0" fill="#FCE94F" stroke="#000000" stroke-width="8" d="M148.182-136.196
	l54.475-14.865l-24.371,70.942l-35.398,39.915L148.182-136.196z"/>
<radialGradient id="circle7744_1_" cx="-782.3359" cy="482.4951" r="236.8458" gradientTransform="matrix(-1.1205 0 0 1.1205 -901.3535 -781.5245)" gradientUnits="userSpaceOnUse">
	<stop  offset="0" style="stop-color:#FFFFFF;stop-opacity:0"/>
	<stop  offset="0.0903" style="stop-color:#F9FAFA;stop-opacity:0.09"/>
	<stop  offset="0.2113" style="stop-color:#FAFFFF;stop-opacity:0.21"/>
	<stop  offset="0.3497" style="stop-color:#FFFFFF;stop-opacity:0.35"/>
	<stop  offset="0.5" style="stop-color:#FFFFFF;stop-opacity:0.45"/>
	<stop  offset="0.5787" style="stop-color:#FFFFFF;stop-opacity:0.5"/>
	<stop  offset="1" style="stop-color:#FFFFFF;stop-opacity:0.75"/>
</radialGradient>
<path id="circle7744" sodipodi:ry="19.018" sodipodi:cy="54.053001" sodipodi:cx="27.679001" sodipodi:rx="19.018" fill="url(#circle7744_1_)" stroke="#192333" stroke-width="8" d="
	M26.364-346.66c98.032,0,177.504,79.471,177.504,177.5S124.396,8.34,26.364,8.34c-98.029,0-177.496-79.471-177.496-177.5
	S-71.665-346.66,26.364-346.66z"/>
<radialGradient id="path7753_1_" cx="-734.3564" cy="428.8652" r="288.1184" gradientTransform="matrix(-1.1205 0 0 1.1205 -901.3535 -781.5245)" gradientUnits="userSpaceOnUse">
	<stop  offset="0" style="stop-color:#FFFFFF"/>
	<stop  offset="1" style="stop-color:#8D9BA6"/>
</radialGradient>
<path id="path7753" fill="url(#path7753_1_)" d="M26.364-341.987c-95.288,0-172.831,77.54-172.831,172.835
	c0,95.28,77.535,172.815,172.831,172.815c95.308,0,172.835-77.535,172.835-172.815C199.191-264.464,121.672-341.987,26.364-341.987z
	 M26.364-5.691c-90.147,0-163.497-73.322-163.497-163.469c0-90.159,73.35-163.497,163.497-163.497
	c90.151,0,163.513,73.346,163.513,163.505C189.877-78.997,116.516-5.691,26.364-5.691z"/>
</svg>
