<?xml version="1.0" encoding="utf-8"?>
<!-- Generator: Adobe Illustrator 15.0.0, SVG Export Plug-In . SVG Version: 6.00 Build 0)  -->
<!DOCTYPE svg PUBLIC "-//W3C//DTD SVG 1.1//EN" "http://www.w3.org/Graphics/SVG/1.1/DTD/svg11.dtd">
<svg version="1.1"
	 id="svg90649" sodipodi:docname="voronoifracture.svg" inkscape:version="0.48.4 r9939" xmlns:inkscape="http://www.inkscape.org/namespaces/inkscape" xmlns:sodipodi="http://sodipodi.sourceforge.net/DTD/sodipodi-0.dtd" xmlns:svg="http://www.w3.org/2000/svg" xmlns:rdf="http://www.w3.org/1999/02/22-rdf-syntax-ns#" xmlns:dc="http://purl.org/dc/elements/1.1/" xmlns:cc="http://creativecommons.org/ns#"
	 xmlns="http://www.w3.org/2000/svg" xmlns:xlink="http://www.w3.org/1999/xlink" x="0px" y="0px" width="400px" height="400px"
	 viewBox="-176 -352 400 400" enable-background="new -176 -352 400 400" xml:space="preserve">
<sodipodi:namedview  id="base" inkscape:pageopacity="0.0" inkscape:pageshadow="2" inkscape:document-units="px" inkscape:current-layer="layer1" inkscape:window-width="2560" inkscape:window-height="1538" inkscape:window-x="-8" inkscape:window-y="-8" showgrid="true" pagecolor="#ffffff" bordercolor="#666666" borderopacity="1.0" inkscape:zoom="14" inkscape:cx="12.642857" inkscape:cy="22.785714" inkscape:grid-bbox="true" inkscape:window-maximized="1">
	</sodipodi:namedview>
<path id="path3173" sodipodi:nodetypes="ccccc" fill-opacity="0.251" d="M41.684,50.132L196.231-79.345l-32.44-26.093
	l-299.462-44.286v74.933L41.684,50.132z"/>
<path id="path91255" inkscape:connector-curvature="0" fill="#D3D7CF" stroke="#2E3436" d="M13.664-253.875l-163.061,70.66
	l5.217,77.729L31.16,16.089l154.187-121.72l8.874-78.977L13.664-253.875z"/>
<path id="path91259" inkscape:connector-curvature="0" fill="#FFFFFF" d="M-145.624-180.974l159.489-67.675l175.375,67.675
	L23.273-84.462L-145.624-180.974z"/>
<path id="path91257" inkscape:connector-curvature="0" sodipodi:nodetypes="ccccc" fill="#DFDFDA" d="M-144.445-180.391
	L23.273-84.462l7.065,96.512l-171.843-121.229L-144.445-180.391z"/>
<path id="path90682" inkscape:connector-curvature="0" fill="none" stroke="#000000" stroke-width="8" d="M-77.418-167.932
	c4.2,0.7,42.037,19.608,42.037,19.608l-35.025,9.109l4.9,64.416l-34.332-24.508l5.604-56.033L-77.418-167.932z"/>
<path id="path90684" inkscape:connector-curvature="0" fill="none" stroke="#000000" stroke-width="8" d="M-57.101-222.548
	l14.716,12.605l45.536-4.2l16.117,33.612l-32.225,21.7l-23.816,9.108l-39.236-17.508l-23.82-37.808L-57.101-222.548z"/>
<path id="path90686" inkscape:connector-curvature="0" fill="none" stroke="#000000" d="M-57.101-222.548l14.716,14.705l46.236-7
	l23.817-9.104l14.016-19.613l-28.028-9.803L-57.101-222.548z"/>
<path id="path90688" inkscape:connector-curvature="0" fill="none" stroke="#000000" d="M24.159-221.147l30.832,16.108
	l43.434-16.108l-57.457-22.413L24.159-221.147z"/>
<path id="path90690" inkscape:connector-curvature="0" fill="none" stroke="#000000" stroke-width="8" d="M23.468-222.548
	l74.264,36.417l-19.615,8.404l-60.257-4.904L3.843-214.144L23.468-222.548z"/>
<path id="path90692" inkscape:connector-curvature="0" fill="none" stroke="#000000" stroke-width="8" d="M97.023-221.848
	l13.31,25.912l-14.709,9.096l-35.74-18.2L97.023-221.848z"/>
<path id="path90694" inkscape:connector-curvature="0" sodipodi:nodetypes="ccsccccc" fill="none" stroke="#000000" stroke-width="8" d="
	M100.517-221.147l10.508,25.912c0,0-20.316,6.305-16.108,7.004c4.2,0.7,74.957,20.308,74.957,20.308l-0.692,11.2l19.616,2.108
	l4.908-28.716L100.517-221.147z"/>
<path id="path90696" inkscape:connector-curvature="0" fill="none" stroke="#000000" stroke-width="8" d="M-17.165-156.724
	l24.521,13.308l-42.736,20.309L6.655-28.566L-9.107-11.831l-26.266-22.489L-64.806-77.59l-3.5-62.333L-17.165-156.724z"/>
<path id="path90698" inkscape:connector-curvature="0" fill="none" stroke="#000000" stroke-width="8" d="M8.755-144.123
	l50.436,6.308l32.232,23.116l-5.607,44.809L38.176-14.559L6.655-30.667l-42.036-92.44L8.755-144.123z"/>
<path id="path90700" inkscape:connector-curvature="0" fill="none" stroke="#000000" stroke-width="8" d="M-15.065-156.724l21.72,14
	l51.137,6.308l24.524-41.32l-61.649-4.904L-15.065-156.724z"/>
<path id="path90702" inkscape:connector-curvature="0" fill="none" stroke="#000000" stroke-width="8" d="M78.808-177.028
	l18.924-11.903l72.857,21.007l-2.101,11.2l-46.239,89.641l-36.425-7.008l4.899-40.616l-30.824-23.108L78.808-177.028z"/>
<path id="path91269" inkscape:connector-curvature="0" fill="none" stroke="#000000" stroke-width="8" d="M-100.308-98.003
	l-10.662,15.544"/>
<path id="path91271_2_" inkscape:connector-curvature="0" fill="none" stroke="#000000" stroke-width="8" d="M-46.754-20.907"/>
<path id="path91275" inkscape:connector-curvature="0" fill="none" stroke="#000000" stroke-width="8" d="M39.752-14.43
	L31.16,16.089"/>
<path id="path91277" inkscape:connector-curvature="0" fill="none" stroke="#000000" stroke-width="8" d="M86.838-73.286
	l17.942,31.251"/>
<path id="path91281" inkscape:connector-curvature="0" fill="none" stroke="#000000" stroke-width="8" d="M140.393-100.94
	l15.625,18.465"/>
<path id="path91255_1_" inkscape:connector-curvature="0" fill="none" stroke="#2E3436" stroke-width="8" d="M13.072-253.875
	l-163.061,70.66l5.214,77.729L30.564,16.089l154.186-121.72l8.874-78.977L13.072-253.875z"/>
<path id="path6172_1_" stroke="#8F5902" stroke-width="5" stroke-linecap="round" d="M-72.493-346.598
	c-1.448,0.298-2.7,1.195-3.444,2.474c-0.741,1.284-0.889,2.816-0.418,4.216l36.565,108.396c0.922,2.699,3.862,4.143,6.566,3.218
	c2.704-0.921,4.144-3.862,3.223-6.565l-36.565-108.384C-67.417-345.692-69.955-347.125-72.493-346.598z"/>
<path id="path6202_1_" stroke="#8F5902" stroke-width="5" stroke-linecap="round" d="M111.604-333.72
	c-1.689,0.438-3.049,1.697-3.604,3.347c-14.032,35.246-28.064,69.658-48.928,93.209c-1.488,1.332-2.061,3.391-1.488,5.314
	c0.563,1.903,2.196,3.311,4.168,3.604c1.963,0.306,3.934-0.559,5.036-2.221c22.586-25.501,36.674-60.73,50.722-96.037
	c0.854-1.803,0.596-3.947-0.667-5.487C115.578-333.531,113.535-334.214,111.604-333.72z"/>
<path id="path6216_1_" stroke="#8F5902" stroke-width="5" stroke-linecap="round" d="M117.928-332.469
	c-2.044,0.644-3.476,2.49-3.604,4.639c-5.776,50.179,9.237,96.689,14.676,143.42c-0.201,2.076,0.861,4.071,2.703,5.048
	c1.852,0.974,4.104,0.745,5.705-0.591c1.609-1.328,2.244-3.5,1.626-5.487c-5.593-48.067-20.132-93.962-14.677-141.361
	c0.233-1.713-0.402-3.419-1.697-4.554C121.372-332.493,119.602-332.912,117.928-332.469L117.928-332.469z"/>
<path id="path12214_1_" stroke="#8F5902" stroke-width="5" stroke-linecap="round" d="M32.816-340.929
	c-1.416,0.064-2.734,0.708-3.66,1.778c-0.917,1.074-1.368,2.482-1.215,3.89c2.479,48.192,14.08,98.6,36.046,134.143
	c0.909,1.654,2.671,2.668,4.569,2.644c1.892-0.024,3.621-1.094,4.507-2.776c0.86-1.689,0.748-3.718-0.322-5.282
	C52.239-239.71,40.638-288.899,38.24-335.788c0-1.408-0.579-2.76-1.594-3.733C35.601-340.482,34.217-341.001,32.816-340.929
	L32.816-340.929z"/>
<path id="path12216_1_" stroke="#8F5902" stroke-width="5" stroke-linecap="round" d="M-5.804-340.153
	c-2.068,0.52-3.609,2.257-3.866,4.374c-6.936,39.703-5.938,90.095-30.386,128.736c-1.069,1.558-1.194,3.593-0.318,5.283
	c0.873,1.682,2.603,2.751,4.498,2.775c1.895,0.024,3.649-0.989,4.57-2.643c26.621-42.097,25.289-94.605,31.927-132.603
	c0.329-1.746-0.262-3.544-1.573-4.755C-2.252-340.189-4.09-340.632-5.804-340.153L-5.804-340.153z"/>
<path id="path12218_1_" stroke="#8F5902" stroke-width="5" stroke-linecap="round" d="M20.197-335.522
	c-1.368,0.128-2.619,0.796-3.5,1.866c-0.865,1.066-1.276,2.434-1.139,3.802c3.975,35.837,1.13,70.624,17.766,101.449
	c0.771,1.802,2.486,3.004,4.441,3.122c1.939,0.113,3.797-0.881,4.771-2.587c0.965-1.697,0.885-3.797-0.201-5.422
	c-14.821-27.445-12.367-60.551-16.479-97.583c-0.129-1.368-0.805-2.631-1.867-3.504C22.936-335.261,21.564-335.663,20.197-335.522
	L20.197-335.522z"/>
<path id="path12220_1_" stroke="#8F5902" stroke-width="5" stroke-linecap="round" d="M8.868-350.199
	c-2.24,0.576-3.813,2.58-3.862,4.896c-2.546,32.965-1.203,79.499-12.105,108.658c-0.994,2.7,0.39,5.692,3.089,6.698
	c2.703,1.001,5.705-0.391,6.699-3.09c12.206-32.654,10.162-79.631,12.616-111.485c0.221-1.706-0.403-3.419-1.706-4.555
	C12.316-350.23,10.534-350.641,8.868-350.199z"/>
<path id="path6214_1_" stroke="#8F5902" stroke-width="5" stroke-linecap="round" d="M110.976-322.572
	c-2.445,0.37-4.28,2.421-4.377,4.896c-2.301,39.317-6.179,79.712,10.299,120.497c0.611,1.818,2.181,3.146,4.071,3.452
	c1.891,0.301,3.798-0.471,4.941-2.004c1.158-1.54,1.351-3.584,0.521-5.314c-15.375-38.074-11.851-76.574-9.518-116.124
	c0.097-1.545-0.522-3.069-1.674-4.12C114.098-322.334,112.521-322.81,110.976-322.572z"/>
<path id="path6204_1_" stroke="#8F5902" stroke-width="5" stroke-linecap="round" d="M112.891-326.764
	c-2.124,0.253-3.861,1.794-4.377,3.862c-11.859,38.319-15.287,75.207-38.879,111.747c-1.078,1.558-1.198,3.593-0.321,5.283
	c0.869,1.682,2.607,2.752,4.506,2.776c1.883,0.024,3.653-0.99,4.57-2.643c25.055-38.79,28.451-77.311,39.908-114.318
	c0.531-1.649,0.193-3.451-0.894-4.803C116.303-326.229,114.613-326.938,112.891-326.764z"/>
<path id="path12210_1_" stroke="#8F5902" stroke-width="5" stroke-linecap="round" d="M12.223-279.136
	c-2.744,0-5.009,2.152-5.149,4.896c-4.095,36.887-4.639,81.993-19.314,109.168c-1.087,1.622-1.167,3.722-0.198,5.419
	c0.974,1.706,2.82,2.704,4.771,2.59c1.951-0.12,3.677-1.319,4.441-3.122c16.792-31.09,16.603-77.049,20.598-113.038
	c0.222-1.489-0.204-3.013-1.202-4.152C15.172-278.5,13.732-279.151,12.223-279.136z"/>
<path id="path12212_1_" stroke="#8F5902" stroke-width="5" stroke-linecap="round" d="M18.913-281.968
	c-2.634,0.52-4.441,2.989-4.119,5.668c2.462,31.85,0.411,78.831,12.616,111.482c0.426,1.979,1.979,3.528,3.942,3.942
	c1.979,0.435,4.031-0.342,5.23-1.971c1.198-1.633,1.335-3.81,0.354-5.581c-10.894-29.15-9.301-75.692-11.853-108.658
	c-0.048-1.524-0.756-2.94-1.938-3.89C21.955-281.903,20.406-282.273,18.913-281.968z"/>
<path id="path12206_1_" stroke="#8F5902" stroke-width="5" stroke-linecap="round" d="M-4.521-272.446
	c-2.132,0.676-3.601,2.651-3.609,4.896c-2.405,46.888-14.253,96.066-34.759,129.251c-1.07,1.561-1.195,3.597-0.322,5.278
	c0.873,1.689,2.603,2.751,4.498,2.784c1.895,0.024,3.653-0.99,4.574-2.647c21.966-35.544,33.829-85.952,36.3-134.14
	c0.172-1.722-0.543-3.419-1.887-4.51C-1.057-272.627-2.871-272.965-4.521-272.446L-4.521-272.446z"/>
<path id="path12208_1_" stroke="#8F5902" stroke-width="5" stroke-linecap="round" d="M23.549-273.21
	c-1.473,0.112-2.821,0.857-3.714,2.04c-0.88,1.187-1.219,2.687-0.914,4.14c8.473,46.18,13.59,95.276,42.749,134.14
	c1.095,1.496,2.913,2.3,4.747,2.083c1.835-0.217,3.428-1.409,4.151-3.114c0.725-1.713,0.468-3.685-0.676-5.149
	c-26.961-35.974-32.369-83.075-40.938-129.766C28.561-271.472,26.211-273.375,23.549-273.21z"/>
<path id="path12845_1_" stroke="#8F5902" stroke-width="5" stroke-linecap="round" d="M-109.24-320.299
	c-1.456,0.061-2.833,0.745-3.765,1.871c-0.93,1.131-1.34,2.604-1.119,4.056l16.997,121.261c0.354,2.853,2.949,4.872,5.793,4.51
	c2.84-0.357,4.859-2.944,4.506-5.793l-16.997-121.266C-104.099-318.405-106.488-320.448-109.24-320.299L-109.24-320.299z"/>
<path id="path12847_1_" stroke="#8F5902" stroke-width="5" stroke-linecap="round" d="M-82.495-317.761
	c-1.449,0.298-2.703,1.194-3.444,2.474c-0.732,1.283-0.889,2.816-0.418,4.216l36.565,108.396c0.921,2.699,3.862,4.144,6.565,3.218
	c2.704-0.921,4.144-3.862,3.223-6.565l-36.564-108.384C-77.418-316.856-79.957-318.288-82.495-317.761z"/>
</svg>
